<svg width="44" height="44" viewBox="0 0 44 44" fill="none" xmlns="http://www.w3.org/2000/svg">
<path d="M23.2425 21.9998L18.2925 17.0498C18.197 16.9576 18.1208 16.8472 18.0684 16.7252C18.016 16.6032 17.9884 16.472 17.9872 16.3392C17.9861 16.2064 18.0114 16.0748 18.0616 15.9519C18.1119 15.829 18.1862 15.7173 18.2801 15.6234C18.374 15.5295 18.4856 15.4553 18.6085 15.405C18.7314 15.3547 18.8631 15.3294 18.9959 15.3306C19.1286 15.3317 19.2599 15.3593 19.3819 15.4117C19.5039 15.4641 19.6142 15.5403 19.7065 15.6358L25.3635 21.2928C25.5509 21.4804 25.6563 21.7347 25.6563 21.9998C25.6563 22.265 25.5509 22.5193 25.3635 22.7068L19.7065 28.3638C19.5179 28.546 19.2653 28.6468 19.0031 28.6445C18.7409 28.6422 18.4901 28.537 18.3046 28.3516C18.1192 28.1662 18.0141 27.9154 18.0118 27.6532C18.0095 27.391 18.1103 27.1384 18.2925 26.9498L23.2425 21.9998Z" fill="currentColor"/>
</svg>
