<svg width="44" height="44" viewBox="0 0 44 44" fill="none" xmlns="http://www.w3.org/2000/svg">
<path d="M20.7575 22.0002L25.7075 26.9502C25.803 27.0424 25.8792 27.1528 25.9316 27.2748C25.984 27.3968 26.0116 27.528 26.0128 27.6608C26.0139 27.7936 25.9886 27.9252 25.9384 28.0481C25.8881 28.171 25.8138 28.2827 25.7199 28.3766C25.626 28.4705 25.5144 28.5447 25.3915 28.595C25.2686 28.6453 25.1369 28.6706 25.0041 28.6694C24.8714 28.6683 24.7401 28.6407 24.6181 28.5883C24.4961 28.5359 24.3858 28.4597 24.2935 28.3642L18.6365 22.7072C18.4491 22.5197 18.3438 22.2653 18.3438 22.0002C18.3438 21.735 18.4491 21.4807 18.6365 21.2932L24.2935 15.6362C24.4821 15.454 24.7347 15.3532 24.9969 15.3555C25.2591 15.3578 25.5099 15.463 25.6954 15.6484C25.8808 15.8338 25.9859 16.0846 25.9882 16.3468C25.9905 16.609 25.8897 16.8616 25.7075 17.0502L20.7575 22.0002Z" fill="currentColor"/>
</svg>
