<svg width="38" height="38" viewBox="0 0 38 38" fill="none" xmlns="http://www.w3.org/2000/svg">
<circle cx="19" cy="19" r="19" fill="white"/>
<circle cx="19" cy="19" r="18.4458" stroke="#70737C" stroke-opacity="0.22" stroke-width="1.10833"/>
<path d="M19 18.4707C24.2461 18.4707 28.5 22.7246 28.5 27.9707C28.5 28.5513 28.025 29.0263 27.4444 29.0263H10.5556C9.975 29.0263 9.5 28.5513 9.5 27.9707C9.5 22.7246 13.7539 18.4707 19 18.4707Z" fill="#70737C" fill-opacity="0.22"/>
<path d="M18.9998 17.7759C21.7222 17.7759 23.9292 15.5689 23.9292 12.8464C23.9292 10.124 21.7222 7.91699 18.9998 7.91699C16.2773 7.91699 14.0703 10.124 14.0703 12.8464C14.0703 15.5689 16.2773 17.7759 18.9998 17.7759Z" fill="#70737C" fill-opacity="0.22"/>
</svg>
