<svg width="28" height="28" viewBox="0 0 28 28" fill="currentColor" xmlns="http://www.w3.org/2000/svg">
<path fill-rule="evenodd" clip-rule="evenodd" d="M13.9997 2.33301C20.443 2.33301 25.6663 7.55635 25.6663 13.9997C25.6663 20.443 20.443 25.6663 13.9997 25.6663C7.55635 25.6663 2.33301 20.443 2.33301 13.9997C2.33301 7.55635 7.55635 2.33301 13.9997 2.33301ZM19.326 8.67334C18.9615 8.30885 18.3712 8.30885 18.0067 8.67334L13.9997 12.6803L9.99268 8.67334C9.62819 8.30885 9.03783 8.30885 8.67334 8.67334C8.30885 9.03783 8.30885 9.62819 8.67334 9.99268L12.6803 13.9997L8.67334 18.0067C8.30885 18.3712 8.30885 18.9615 8.67334 19.326C9.03784 19.6904 9.62821 19.6905 9.99268 19.326L13.9997 15.319L18.0067 19.326C18.3712 19.6904 18.9615 19.6905 19.326 19.326C19.6905 18.9615 19.6904 18.3712 19.326 18.0067L15.319 13.9997L19.326 9.99268C19.6905 9.62821 19.6904 9.03784 19.326 8.67334Z" fill="currentColor"/>
</svg>
