<svg width="28" height="28" viewBox="0 0 28 28" fill="none" xmlns="http://www.w3.org/2000/svg">
<path d="M14 2.33398C20.4432 2.33416 25.666 7.55776 25.666 14.001C25.6658 20.444 20.4431 25.6668 14 25.667C7.55679 25.667 2.33318 20.4442 2.33301 14.001C2.33301 7.55765 7.55668 2.33398 14 2.33398ZM19.167 8.54688C18.7323 8.27036 18.1557 8.39838 17.8789 8.83301L12.5215 17.2451C12.1884 17.768 11.4465 17.8272 11.0352 17.3633L8.86426 14.915C8.52224 14.5295 7.93249 14.494 7.54688 14.8359C7.1615 15.1779 7.12601 15.7677 7.46777 16.1533L9.63867 18.6016C10.8728 19.9933 13.0964 19.817 14.0957 18.248L19.4531 9.83496C19.7298 9.40021 19.6017 8.82372 19.167 8.54688Z" fill="#10A657"/>
</svg>
