<svg width="24" height="24" viewBox="0 0 24 24" fill="none" xmlns="http://www.w3.org/2000/svg">
<path d="M18.4345 4.43549C18.7469 4.12307 19.2529 4.12307 19.5654 4.43549C19.8777 4.74791 19.8778 5.25395 19.5654 5.56635L13.1308 12.0009L19.5654 18.4355C19.8777 18.7479 19.8778 19.2539 19.5654 19.5663C19.253 19.8787 18.7469 19.8787 18.4345 19.5663L11.9999 13.1318L5.56537 19.5663C5.25297 19.8787 4.74693 19.8787 4.43451 19.5663C4.12209 19.2539 4.12209 18.7479 4.43451 18.4355L10.8691 12.0009L4.43451 5.56635C4.12209 5.25393 4.12209 4.74791 4.43451 4.43549C4.74693 4.12307 5.25295 4.12307 5.56537 4.43549L11.9999 10.8701L18.4345 4.43549Z" fill="#70757C"/>
</svg>
