<svg width="44" height="44" viewBox="0 0 44 44" fill="none" xmlns="http://www.w3.org/2000/svg">
<path d="M16.4138 21.6447L21.3638 26.5947C21.4593 26.687 21.5355 26.7973 21.5879 26.9193C21.6403 27.0413 21.6679 27.1725 21.669 27.3053C21.6702 27.4381 21.6449 27.5698 21.5946 27.6927C21.5443 27.8156 21.4701 27.9272 21.3762 28.0211C21.2823 28.115 21.1706 28.1893 21.0477 28.2395C20.9248 28.2898 20.7932 28.3151 20.6604 28.314C20.5276 28.3128 20.3964 28.2852 20.2744 28.2328C20.1524 28.1804 20.042 28.1042 19.9498 28.0087L14.2928 22.3517C14.1053 22.1642 14 21.9099 14 21.6447C14 21.3795 14.1053 21.1252 14.2928 20.9377L19.9498 15.2807C20.1384 15.0986 20.391 14.9978 20.6532 15C20.9154 15.0023 21.1662 15.1075 21.3516 15.2929C21.537 15.4783 21.6422 15.7291 21.6445 15.9913C21.6467 16.2535 21.5459 16.5061 21.3638 16.6947L16.4138 21.6447Z" fill="currentColor"/>
<path d="M25.0837 21.6447L30.0337 26.5947C30.1292 26.687 30.2054 26.7973 30.2578 26.9193C30.3102 27.0413 30.3378 27.1725 30.339 27.3053C30.3401 27.4381 30.3148 27.5698 30.2645 27.6927C30.2142 27.8156 30.14 27.9272 30.0461 28.0211C29.9522 28.115 29.8406 28.1893 29.7177 28.2395C29.5948 28.2898 29.4631 28.3151 29.3303 28.314C29.1975 28.3128 29.0663 28.2852 28.9443 28.2328C28.8223 28.1804 28.712 28.1042 28.6197 28.0087L22.9627 22.3517C22.7752 22.1642 22.6699 21.9099 22.6699 21.6447C22.6699 21.3795 22.7752 21.1252 22.9627 20.9377L28.6197 15.2807C28.8083 15.0986 29.0609 14.9978 29.3231 15C29.5853 15.0023 29.8361 15.1075 30.0215 15.2929C30.2069 15.4783 30.3121 15.7291 30.3144 15.9913C30.3167 16.2535 30.2159 16.5061 30.0337 16.6947L25.0837 21.6447Z" fill="currentColor"/>
</svg>
