<svg width="44" height="44" viewBox="0 0 44 44" fill="none" xmlns="http://www.w3.org/2000/svg">
<path d="M27.5862 22.3553L22.6362 17.4053C22.5407 17.313 22.4645 17.2027 22.4121 17.0807C22.3597 16.9587 22.3321 16.8275 22.331 16.6947C22.3298 16.5619 22.3551 16.4302 22.4054 16.3073C22.4557 16.1844 22.5299 16.0728 22.6238 15.9789C22.7177 15.885 22.8294 15.8108 22.9523 15.7605C23.0752 15.7102 23.2068 15.6849 23.3396 15.686C23.4724 15.6872 23.6036 15.7148 23.7256 15.7672C23.8476 15.8196 23.958 15.8958 24.0502 15.9913L29.7072 21.6483C29.8947 21.8358 30 22.0901 30 22.3553C30 22.6205 29.8947 22.8748 29.7072 23.0623L24.0502 28.7193C23.8616 28.9014 23.609 29.0022 23.3468 29C23.0846 28.9977 22.8338 28.8925 22.6484 28.7071C22.463 28.5217 22.3578 28.2709 22.3555 28.0087C22.3533 27.7465 22.4541 27.4939 22.6362 27.3053L27.5862 22.3553Z" fill="currentColor"/>
<path d="M18.9163 22.3553L13.9663 17.4053C13.8708 17.313 13.7946 17.2027 13.7422 17.0807C13.6898 16.9587 13.6622 16.8275 13.661 16.6947C13.6599 16.5619 13.6852 16.4302 13.7355 16.3073C13.7858 16.1844 13.86 16.0728 13.9539 15.9789C14.0478 15.885 14.1594 15.8108 14.2823 15.7605C14.4052 15.7102 14.5369 15.6849 14.6697 15.686C14.8025 15.6872 14.9337 15.7148 15.0557 15.7672C15.1777 15.8196 15.288 15.8958 15.3803 15.9913L21.0373 21.6483C21.2248 21.8358 21.3301 22.0901 21.3301 22.3553C21.3301 22.6205 21.2248 22.8748 21.0373 23.0623L15.3803 28.7193C15.1917 28.9014 14.9391 29.0022 14.6769 29C14.4147 28.9977 14.1639 28.8925 13.9785 28.7071C13.7931 28.5217 13.6879 28.2709 13.6856 28.0087C13.6833 27.7465 13.7841 27.4939 13.9663 27.3053L18.9163 22.3553Z" fill="currentColor"/>
</svg>
