<svg width="28" height="28" viewBox="0 0 28 28" fill="none" xmlns="http://www.w3.org/2000/svg">
<path d="M14 2.33398C20.4432 2.33416 25.666 7.55776 25.666 14.001C25.6658 20.444 20.4431 25.6668 14 25.667C7.55679 25.667 2.33318 20.4442 2.33301 14.001C2.33301 7.55765 7.55668 2.33398 14 2.33398ZM13.999 16.334C12.7108 16.3343 11.6662 17.3787 11.666 18.667C11.666 19.9554 12.7107 21.0006 13.999 21.001C15.2877 21.001 16.333 19.9557 16.333 18.667C16.3328 17.3785 15.2876 16.334 13.999 16.334ZM12.9082 5.83398C12.2355 5.83417 11.7013 6.4018 11.7432 7.07324L12.1807 14.0732C12.2191 14.688 12.7298 15.1668 13.3457 15.167H14.6533C15.2694 15.167 15.7789 14.6881 15.8174 14.0732L16.2549 7.07324C16.2968 6.40167 15.7637 5.83398 15.0908 5.83398H12.9082Z" fill="#F6A220"/>
</svg>
