<svg width="28" height="28" viewBox="0 0 28 28" fill="none" xmlns="http://www.w3.org/2000/svg">
<path d="M13.4163 2.33398C19.5375 2.33398 24.4997 7.29616 24.4997 13.4173C24.4997 15.98 23.6268 18.3372 22.1663 20.2145V22.1126C22.1664 22.1487 22.1753 22.184 22.1914 22.2163L23.1917 24.2181C23.2619 24.3585 23.177 24.5261 23.0208 24.5417C21.9039 24.6529 19.8974 24.5147 18.2653 23.3841C16.8004 24.0981 15.1556 24.5007 13.4163 24.5007C7.29519 24.5007 2.33301 19.5385 2.33301 13.4173C2.33301 7.29616 7.29519 2.33398 13.4163 2.33398ZM13.4163 11.3175C12.9009 11.3175 12.4832 11.7352 12.4832 12.2507V18.6673C12.4832 19.1828 12.9009 19.6004 13.4163 19.6004C13.9318 19.6004 14.3494 19.1828 14.3494 18.6673V12.2507C14.3494 11.7352 13.9318 11.3175 13.4163 11.3175ZM13.4163 7.58398C12.772 7.58398 12.2497 8.10632 12.2497 8.75065C12.2497 9.39498 12.772 9.91732 13.4163 9.91732C14.0607 9.91732 14.583 9.39498 14.583 8.75065C14.583 8.10632 14.0607 7.58398 13.4163 7.58398Z" fill="#456FB6"/>
</svg>
