<svg width="24" height="24" viewBox="0 0 24 24" fill="none" xmlns="http://www.w3.org/2000/svg">
<path d="M10.3909 12.8054C10.7364 13.2677 11.1772 13.6503 11.6835 13.9272C12.1897 14.204 12.7494 14.3686 13.3248 14.4099C13.9002 14.4511 14.4777 14.368 15.0181 14.1662C15.5586 13.9644 16.0493 13.6486 16.4572 13.2402L18.8708 10.8242C19.6035 10.0647 20.009 9.04757 19.9998 7.99176C19.9907 6.93596 19.5676 5.926 18.8218 5.17941C18.0759 4.43282 17.067 4.00933 16.0122 4.00015C14.9575 3.99098 13.9414 4.39685 13.1827 5.13036L11.7989 6.50751M13.6091 11.1946C13.2636 10.7323 12.8228 10.3497 12.3165 10.0728C11.8103 9.796 11.2506 9.63137 10.6752 9.59012C10.0998 9.54887 9.52235 9.63197 8.98189 9.83378C8.44143 10.0356 7.95065 10.3514 7.54284 10.7598L5.12922 13.1758C4.39645 13.9353 3.99099 14.9524 4.00015 16.0082C4.00932 17.064 4.43238 18.074 5.17822 18.8206C5.92407 19.5672 6.93301 19.9907 7.98775 19.9998C9.04249 20.009 10.0586 19.6031 10.8173 18.8696L12.1931 17.4925" stroke="currentColor" stroke-width="1.6" stroke-linecap="round" stroke-linejoin="round"/>
</svg>
