<svg width="48" height="48" viewBox="0 0 48 48" fill="none" xmlns="http://www.w3.org/2000/svg">
<path d="M32.9879 11.08C32.4936 11.08 32.0167 10.8969 31.6494 10.5661L27.7212 7.02787C26.9865 6.36617 26.0329 6 25.0442 6H8C6.89543 6 6 6.89543 6 8V11.08V39.14C6 40.2446 6.89543 41.14 8 41.14H40.4C41.5046 41.14 42.4 40.2446 42.4 39.14V13.08C42.4 11.9754 41.5046 11.08 40.4 11.08H32.9879Z" fill="#5A81FA"/>
<path d="M32.9879 16.9198C32.4936 16.9198 32.0167 16.7368 31.6494 16.4059L27.7212 12.8677C26.9865 12.206 26.0329 11.8398 25.0442 11.8398H8C6.89543 11.8398 6 12.7353 6 13.8398V16.9198V39.1398C6 40.2444 6.89543 41.1398 8 41.1398H40.4C41.5046 41.1398 42.4 40.2444 42.4 39.1398V18.9198C42.4 17.8153 41.5046 16.9198 40.4 16.9198H32.9879Z" fill="#A0B7FF"/>
<path d="M24.1997 37.1611C29.1813 37.1611 33.2197 33.1227 33.2197 28.1411C33.2197 23.1595 29.1813 19.1211 24.1997 19.1211C19.2181 19.1211 15.1797 23.1595 15.1797 28.1411C15.1797 33.1227 19.2181 37.1611 24.1997 37.1611Z" fill="#BDED78"/>
<path d="M20.1992 28.2198L23.3992 30.9398L28.1992 25.3398" fill="#BDED78"/>
<path d="M20.1992 28.2198L23.3992 30.9398L28.1992 25.3398" stroke="white" stroke-width="3" stroke-linecap="round" stroke-linejoin="round"/>
</svg>
