<svg width="16" height="16" viewBox="0 0 16 16" fill="none" xmlns="http://www.w3.org/2000/svg">
<path fill-rule="evenodd" clip-rule="evenodd" d="M7.99967 1.33398C11.6816 1.33398 14.6663 4.31875 14.6663 8.00065C14.6663 11.6825 11.6816 14.6673 7.99967 14.6673C4.31778 14.6673 1.33301 11.6825 1.33301 8.00065C1.33301 4.31875 4.31778 1.33398 7.99967 1.33398ZM11.0433 4.95703C10.835 4.74875 10.4977 4.74875 10.2894 4.95703L7.99967 7.24675L5.70996 4.95703C5.50168 4.74875 5.16433 4.74875 4.95605 4.95703C4.74778 5.16531 4.74778 5.50266 4.95605 5.71094L7.24577 8.00065L4.95605 10.2904C4.74778 10.4986 4.74778 10.836 4.95605 11.0443C5.16434 11.2525 5.50169 11.2525 5.70996 11.0443L7.99967 8.75456L10.2894 11.0443C10.4977 11.2525 10.835 11.2525 11.0433 11.0443C11.2516 10.836 11.2515 10.4986 11.0433 10.2904L8.75358 8.00065L11.0433 5.71094C11.2516 5.50267 11.2515 5.16531 11.0433 4.95703Z" fill="#A0B7FF"/>
</svg>
