<svg width="24" height="24" viewBox="0 0 24 24" fill="none" xmlns="http://www.w3.org/2000/svg">
<rect width="24" height="24" fill="white"/>
<rect width="24" height="24" fill="white"/>
<path d="M12 15C12.5523 15 13 15.4477 13 16C13 16.5523 12.5523 17 12 17C11.4477 17 11 16.5523 11 16C11 15.4477 11.4477 15 12 15Z" fill="#70757C"/>
<path d="M12.0273 7C12.6489 7 13.1828 7.11877 13.6289 7.35547C14.0749 7.59216 14.4154 7.92361 14.6494 8.34961C14.8832 8.76766 15 9.24494 15 9.78125C15 10.6096 14.631 11.3319 13.8926 11.9473C13.4904 12.2865 13.2122 12.5825 13.0586 12.835C13.0184 12.9044 12.9825 12.9984 12.9521 13.1055C12.816 13.5863 12.4226 14 11.9229 14C11.4233 13.9998 11.0185 13.5922 11.1074 13.1006C11.1666 12.7734 11.249 12.4719 11.333 12.2783C11.5012 11.9076 11.724 11.5607 12.126 11.2373C12.4842 10.9376 12.74 10.6884 12.8936 10.4912C13.0471 10.2861 13.124 10.0495 13.124 9.78125C13.124 9.48143 13.029 9.2487 12.8389 9.08301C12.6487 8.9095 12.3817 8.82227 12.0381 8.82227C11.6872 8.82233 11.4098 8.9373 11.2051 9.16602C10.8779 9.53215 10.5106 9.98231 10.0195 9.98242H9.9541C9.42714 9.98231 8.98069 9.54467 9.13574 9.04102C9.19739 8.84086 9.2802 8.64983 9.38379 8.46777C9.64704 8.01015 10.0056 7.65099 10.459 7.39062C10.9196 7.13029 11.4424 7.00001 12.0273 7Z" fill="#70757C"/>
<path fill-rule="evenodd" clip-rule="evenodd" d="M12 2.5C17.2467 2.5 21.5 6.75329 21.5 12C21.5 17.2467 17.2467 21.5 12 21.5C6.75329 21.5 2.5 17.2467 2.5 12C2.5 6.75329 6.75329 2.5 12 2.5ZM12 4.09961C7.63695 4.09961 4.09961 7.63695 4.09961 12C4.09961 16.363 7.63695 19.9004 12 19.9004C16.363 19.9004 19.9004 16.363 19.9004 12C19.9004 7.63695 16.363 4.09961 12 4.09961Z" fill="#70757C"/>
</svg>
