<svg width="48" height="48" viewBox="0 0 48 48" fill="none" xmlns="http://www.w3.org/2000/svg">
<path d="M42 38H28C26.8954 38 26 38.8954 26 40C26 41.1046 26.8954 42 28 42H42C43.1046 42 44 41.1046 44 40C44 38.8954 43.1046 38 42 38Z" fill="#7899FF"/>
<path d="M42.5 32H33.5C32.6716 32 32 32.6716 32 33.5C32 34.3284 32.6716 35 33.5 35H42.5C43.3284 35 44 34.3284 44 33.5C44 32.6716 43.3284 32 42.5 32Z" fill="#C8D6FF"/>
<path d="M9.12 28.7116L31.2458 6.58579C32.0268 5.80474 33.2932 5.80474 34.0742 6.58579L41.3852 13.8968C42.1665 14.678 42.1662 15.9448 41.3846 16.7258L19.24 38.8516L6 41.9716L9.12 28.7116Z" fill="#A0B7FF"/>
<path d="M6 41.9716L7.4 35.9916L11.98 40.5716" fill="#5A81FA"/>
<path d="M31.2473 6.59806L27.627 10.2184L37.7527 20.3442L41.3731 16.7238C42.1542 15.9428 42.1542 14.6765 41.3731 13.8954L34.0758 6.59806C33.2947 5.81701 32.0284 5.81701 31.2473 6.59806Z" fill="#5A81FA"/>
</svg>
