<svg width="48" height="48" viewBox="0 0 48 48" fill="none" xmlns="http://www.w3.org/2000/svg">
<path d="M14 12V21.78H18.04V13.34C18.04 10.3 20.52 7.82 23.56 7.82C26.6 7.82 29.08 10.3 29.08 13.34V13.58C29.08 14.1323 29.5277 14.58 30.08 14.58H32.12C32.6723 14.58 33.12 14.1323 33.12 13.58V12C33.12 7.58 29.54 4 25.12 4H22C17.58 4 14 7.58 14 12Z" fill="#5A81FA"/>
<path d="M36.84 18.42H10C7.79086 18.42 6 20.2109 6 22.42V39.86C6 42.0691 7.79086 43.86 10 43.86H36.84C39.0491 43.86 40.84 42.0691 40.84 39.86V22.42C40.84 20.2109 39.0491 18.42 36.84 18.42Z" fill="#A0B7FF"/>
<path d="M23.4204 40.1611C28.402 40.1611 32.4404 36.1227 32.4404 31.1411C32.4404 26.1595 28.402 22.1211 23.4204 22.1211C18.4388 22.1211 14.4004 26.1595 14.4004 31.1411C14.4004 36.1227 18.4388 40.1611 23.4204 40.1611Z" fill="#EDCCF8"/>
<path d="M19.4199 31.2198L22.5999 33.9398L27.4199 28.3398" fill="#EDCCF8"/>
<path d="M19.4199 31.2198L22.5999 33.9398L27.4199 28.3398" stroke="white" stroke-width="3" stroke-linecap="round" stroke-linejoin="round"/>
</svg>
