<svg width="24" height="24" viewBox="0 0 24 24" fill="none" xmlns="http://www.w3.org/2000/svg">
<path d="M21 8H3C2.44772 8 2 8.44772 2 9V19C2 19.5523 2.44772 20 3 20H21C21.5523 20 22 19.5523 22 19V9C22 8.44772 21.5523 8 21 8Z" fill="#A0B7FF"/>
<path d="M15.2381 4H8.75258C7.78725 4 7 4.64245 7 5.43021V8H8.70572V5.96558C8.70572 5.56788 9.09934 5.24665 9.58669 5.24665H14.4133C14.9007 5.24665 15.2943 5.56788 15.2943 5.96558V8H17V5.43021C17 4.64245 16.2127 4 15.2474 4H15.2381Z" fill="#A0B7FF"/>
<path d="M6 20L6 8H4L4 20H6Z" fill="#5A81FA"/>
<path d="M20 20V8H18V20H20Z" fill="#5A81FA"/>
</svg>
