<svg width="80" height="80" viewBox="0 0 80 80" fill="none" xmlns="http://www.w3.org/2000/svg">
<rect width="80" height="80" rx="40" fill="white" fill-opacity="0.3"/>
<path d="M19.6895 19.6895C20.2752 19.1037 21.2248 19.1037 21.8105 19.6895L57.5 55.3779V34.0039C57.5001 33.0376 58.2837 32.254 59.25 32.2539H59.251L59.4297 32.2627C60.3109 32.3528 60.9999 33.0976 61 34.0039V59.2744L60.999 59.2998L60.9951 59.376L60.9932 59.4014L60.9912 59.4258C60.961 59.7249 60.855 59.9982 60.7002 60.2275C60.5774 60.4094 60.4183 60.572 60.2285 60.7002C59.9949 60.8579 59.7205 60.9604 59.4268 60.9902L59.4023 60.9922L59.377 60.9941L59.3008 60.998L59.2754 60.999H34.0039C33.0986 60.9985 32.3522 60.3104 32.2627 59.4277L32.2539 59.249L32.2627 59.0703C32.3523 58.1877 33.0988 57.4995 34.0039 57.499H55.3779L19.6895 21.8105C19.1037 21.2248 19.1037 20.2752 19.6895 19.6895Z" fill="white"/>
</svg>
