<svg width="140" height="30" viewBox="0 0 140 30" fill="none" xmlns="http://www.w3.org/2000/svg">
<g clip-path="url(#clip0_1451_10298)">
<path d="M0 15.5585V14.0339C0 4.69099 4.70402 0 14.1251 0C23.5462 0 27.3771 4.27401 27.4553 11.8708V12.1835H17.5V11.519C17.4609 8.92591 16.1318 7.55771 13.9818 7.55771C11.6623 7.55771 10.0596 9.16046 10.0596 12.8611V16.7442C10.0596 20.4319 11.6754 22.0477 13.9818 22.0477C16.1579 22.0477 17.5782 20.6404 17.5912 17.93V17.083H27.5856V17.3958C27.5465 25.3574 23.2725 29.6054 14.1251 29.6054C4.97766 29.6054 0 24.9013 0 15.5585Z" fill="#5A81FA"/>
<path d="M28.9297 19.2463V18.3863C28.9297 11.7928 32.6825 8.04004 40.6702 8.04004C48.6579 8.04004 52.4237 11.7928 52.4237 18.3863V19.2463C52.4237 25.8397 48.6318 29.5925 40.6702 29.5925C32.7085 29.5925 28.9297 25.8267 28.9297 19.2463ZM43.4327 19.7805V17.8781C43.4327 15.3893 42.312 14.2686 40.6832 14.2686C39.0544 14.2686 37.9208 15.3893 37.9208 17.8781V19.7805C37.9208 22.2303 39.0414 23.377 40.6832 23.377C42.3251 23.377 43.4327 22.2433 43.4327 19.7805Z" fill="#5A81FA"/>
<path d="M95.3049 14.4376H91.5391V8.76928H96.2822C95.4613 8.50867 94.6664 7.63563 94.6664 5.6159V5.43347C94.6664 2.37129 96.6861 0.351562 103.892 0.351562C106.133 0.351562 107.814 0.586112 108.44 0.690356V6.3847C108.049 6.34561 107.163 6.24136 106.107 6.24136C104.127 6.24136 103.592 6.77561 103.592 7.71381V7.83109C103.592 8.48261 103.853 8.71716 104.179 8.76928H108.44V14.4376H104.14V28.8624H95.2919V14.4376H95.3049Z" fill="#5A81FA"/>
<path d="M114.682 0.729492H117.08C118.813 0.729492 120.207 2.30619 120.207 4.26077C120.207 6.21534 118.8 7.79204 117.08 7.79204H114.682C112.949 7.79204 111.555 6.21534 111.555 4.26077C111.555 2.30619 112.962 0.729492 114.682 0.729492Z" fill="#BDED78"/>
<path d="M115.528 8.93945H118.629L120.662 29.0065H115.802H115.958H111.098L113.13 8.93945H116.232" fill="#BDED78"/>
<path d="M123.191 21.7082L125.967 11.9353L122.787 11.9744L123.712 8.75589L127.048 8.79498L128.494 3.60883L137.303 1.27637L135.127 8.79498L139.987 8.75589L139.062 11.9744L134.319 11.9353L131.348 22.3076C130.827 24.1189 131.426 25.2004 132.951 25.2004C133.759 25.2004 134.515 24.9528 135.557 24.3534L134.879 26.9204C133.394 28.4059 130.814 29.4484 128.442 29.4484C124.064 29.4484 121.888 26.1516 123.178 21.6822L123.191 21.7082Z" fill="#5A81FA"/>
<path d="M54.3238 19.2198L54.7278 17.9298C55.6529 14.7895 56.0569 13.1867 57.2166 8.76936H64.8525C63.9273 11.5449 62.8458 14.3204 61.3212 18.5032H61.8424C64.7352 11.6621 68.3577 8.13086 72.5014 8.13086C74.8339 8.13086 76.163 9.29058 76.163 11.3494C76.163 12.5091 75.7981 13.6428 73.7914 18.5032H74.3126C77.2445 11.623 80.7888 8.13086 85.0107 8.13086C87.8644 8.13086 89.5584 9.73362 89.5584 12.5091C89.5584 13.5125 89.2717 14.8807 88.7505 16.4834L87.708 19.8583C86.014 25.0836 85.7013 26.2954 85.1019 28.8624H76.0978C77.4269 25.1227 78.1436 22.7511 78.9906 20.4577L80.3588 16.7571C80.7237 15.7146 80.88 15.0631 80.9191 14.5419C80.9582 13.734 80.6324 13.2909 79.9939 13.2909C78.5085 13.2909 76.4627 16.6268 74.6905 21.7347C74.052 23.5069 73.2832 26.0348 72.6056 28.8494H63.6797C65.4519 23.7414 65.7255 22.6599 66.4943 20.6011L67.8625 16.7831C68.2274 15.7798 68.3837 15.1413 68.4228 14.5288C68.4619 13.6819 68.1362 13.2779 67.5368 13.2779C66.0513 13.2779 63.9925 16.5746 62.1942 21.7608C61.6339 23.4417 60.8651 26.1 60.1875 28.8364H51.3789C52.6298 25.0184 53.2292 22.9726 54.3499 19.1938L54.3238 19.2198Z" fill="#5A81FA"/>
</g>
<defs>
<clipPath id="clip0_1451_10298">
<rect width="140" height="29.5923" fill="white"/>
</clipPath>
</defs>
</svg>
