<svg width="24" height="24" viewBox="0 0 24 24" fill="none" xmlns="http://www.w3.org/2000/svg">
<path d="M9.73633 6.69238C10.9442 6.17156 12.2945 6.06081 13.5732 6.37695C14.6484 6.64277 15.6227 7.19878 16.3887 7.97754L17.2344 7.13281C17.5171 6.84963 18 7.05029 18 7.4502V10.5518C17.9999 10.6706 17.9522 10.7841 17.8682 10.8682C17.784 10.9523 17.6698 11 17.5508 11H14.4502C14.0502 11 13.8501 10.5171 14.1328 10.2344L15.2559 9.11035C14.6978 8.53924 13.9843 8.12623 13.1895 7.92969C12.2489 7.69717 11.2553 7.77899 10.3691 8.16113C9.48333 8.54318 8.75792 9.20201 8.30566 10.0283C7.85369 10.8542 7.69915 11.8022 7.86426 12.7217C8.02947 13.6414 8.5062 14.4844 9.22266 15.1143C9.93967 15.7444 10.8557 16.1242 11.8242 16.1895C12.7928 16.2547 13.7542 16.0016 14.5547 15.4727C15.3548 14.9439 15.9467 14.1712 16.2402 13.2812C16.3787 12.8618 16.8315 12.6341 17.251 12.7725C17.6703 12.911 17.8981 13.3637 17.7598 13.7832C17.3517 15.02 16.532 16.0837 15.4365 16.8076C14.3414 17.5312 13.0321 17.8747 11.7168 17.7861C10.4014 17.6975 9.15128 17.1814 8.16699 16.3164C7.18237 15.4511 6.52017 14.2858 6.29004 13.0049C6.05989 11.7237 6.27574 10.4046 6.90234 9.25977C7.52874 8.11541 8.52818 7.21336 9.73633 6.69238Z" fill="#70757C"/>
<path fill-rule="evenodd" clip-rule="evenodd" d="M12 2C17.5228 2 22 6.47715 22 12C22 17.5228 17.5228 22 12 22C6.47715 22 2 17.5228 2 12C2 6.47715 6.47715 2 12 2ZM12 2.4502C6.72568 2.4502 2.4502 6.72568 2.4502 12C2.4502 17.2743 6.72568 21.5498 12 21.5498C17.2743 21.5498 21.5498 17.2743 21.5498 12C21.5498 6.72568 17.2743 2.4502 12 2.4502Z" fill="#70757C"/>
</svg>
