<svg width="28" height="28" viewBox="0 0 28 28" fill="currentColor" xmlns="http://www.w3.org/2000/svg">
<path fill-rule="evenodd" clip-rule="evenodd" d="M12.4744 3.5C17.431 3.5 21.4498 7.51796 21.45 12.4744L21.4375 12.937C21.3394 14.87 20.6288 16.641 19.4972 18.0617L24.2072 22.8377C24.569 23.2047 24.565 23.7951 24.1981 24.1571C23.8311 24.519 23.2407 24.5149 22.8787 24.148L18.1882 19.3924C16.6358 20.6762 14.6462 21.45 12.4744 21.45L12.013 21.4375C7.27099 21.1971 3.5 17.2762 3.5 12.4744C3.50022 7.51809 7.51809 3.50022 12.4744 3.5ZM12.4744 5.36621C8.54903 5.36643 5.36643 8.54903 5.36621 12.4744C5.36621 16.4001 8.54889 19.5825 12.4744 19.5827C16.4002 19.5827 19.5827 16.4002 19.5827 12.4744C19.5825 8.54889 16.4001 5.36621 12.4744 5.36621Z" fill="currentColor"/>
</svg>
