<svg width="44" height="44" viewBox="0 0 44 44" fill="none" xmlns="http://www.w3.org/2000/svg">
<path d="M33.7964 8.1327C34.3692 7.55993 35.2969 7.55993 35.8697 8.1327C36.4423 8.70548 36.4424 9.63321 35.8697 10.2059L24.073 22.0027L35.8697 33.7994C36.4423 34.3721 36.4424 35.2999 35.8697 35.8726C35.2969 36.4453 34.3692 36.4453 33.7964 35.8726L21.9997 24.0759L10.203 35.8726C9.63028 36.4453 8.70255 36.4453 8.12977 35.8726C7.557 35.2998 7.557 34.3721 8.12977 33.7994L19.9265 22.0027L8.12977 10.2059C7.557 9.63317 7.557 8.70547 8.12977 8.1327C8.70254 7.55993 9.63025 7.55993 10.203 8.1327L21.9997 19.9294L33.7964 8.1327Z" fill="#CBCFD7"/>
</svg>
