<svg width="984" height="984" viewBox="0 0 984 984" fill="none" xmlns="http://www.w3.org/2000/svg">
<g clip-path="url(#clip0_3066_24959)">
<rect width="983.04" height="983.04" fill="#5A81FA"/>
<path d="M381.57 302.445C410.251 190.046 569.967 190.046 598.648 302.445V302.445C608.769 342.107 639.764 373.08 679.436 383.159V383.159C791.775 411.698 791.775 571.289 679.436 599.829V599.829C639.764 609.907 608.769 640.881 598.648 680.543V680.543C569.967 792.942 410.251 792.942 381.57 680.543V680.543C371.449 640.881 340.454 609.907 300.782 599.829V599.829C188.443 571.289 188.443 411.698 300.782 383.159V383.159C340.454 373.08 371.449 342.107 381.57 302.445V302.445Z" fill="url(#paint0_linear_3066_24959)"/>
</g>
<defs>
<linearGradient id="paint0_linear_3066_24959" x1="490.109" y1="-122.906" x2="490.109" y2="1054.39" gradientUnits="userSpaceOnUse">
<stop offset="0.3" stop-color="white"/>
<stop offset="0.55" stop-color="#BDED78"/>
</linearGradient>
<clipPath id="clip0_3066_24959">
<rect width="983.04" height="983.04" fill="white"/>
</clipPath>
</defs>
</svg>
